<svg width="800" height="800" viewBox="0 0 800 800" fill="none" xmlns="http://www.w3.org/2000/svg">
<g clip-path="url(#clip0)">
<path fill-rule="evenodd" clip-rule="evenodd" d="M106.017 579.852C103.576 579.909 101.165 579.313 99.032 578.124C96.8994 576.936 95.1236 575.198 93.8889 573.092C92.6542 570.985 92.0055 568.587 92.01 566.146C92.0146 563.704 92.6723 561.308 93.9149 559.207L115.984 519.657C115.984 519.657 115.984 520.369 149.364 459.936C174.676 417.064 198.406 363.039 198.406 299.759V214.41C198.406 127.004 269.596 4.00388 408.891 4.00388C487.042 4.00388 543.361 39.5198 578.086 87.2171C579.083 87.1858 580.069 87.4323 580.934 87.929L657.186 109.207C660.568 110.123 663.652 111.904 666.136 114.375C668.62 116.846 670.418 119.921 671.352 123.298C672.286 126.675 672.324 130.237 671.463 133.633C670.602 137.029 668.871 140.142 666.441 142.666L619.534 190.126C620.246 198.669 620.958 206.421 620.958 214.964V299.601C620.958 358.609 640.891 409.075 662.881 449.891L692.781 515.306C692.781 515.306 692.781 514.594 713.347 559.365C714.37 561.501 714.831 563.862 714.687 566.226C714.542 568.59 713.797 570.877 712.523 572.873C711.248 574.869 709.485 576.506 707.401 577.63C705.316 578.755 702.98 579.329 700.612 579.298L106.017 579.852ZM241.12 494.424H258.838C297.281 494.424 543.598 458.908 543.598 230.704C543.598 170.272 498.828 95.6017 408.575 95.6017C318.322 95.6017 273.472 174.702 273.472 230.704V285.442C273.472 325.941 272.76 368.655 254.33 417.697C247.211 435.415 236.532 457.247 228.701 473.067C227.545 475.251 226.964 477.695 227.013 480.166C227.062 482.637 227.74 485.056 228.983 487.192C230.225 489.329 231.991 491.114 234.115 492.38C236.239 493.645 238.649 494.348 241.12 494.424Z" fill="white"/>
<path fill-rule="evenodd" clip-rule="evenodd" d="M233.211 665.123C231.113 665.067 229.036 665.538 227.167 666.49C225.298 667.443 223.697 668.848 222.51 670.578C221.323 672.308 220.587 674.307 220.37 676.393C220.153 678.48 220.461 680.588 221.266 682.525V683.316C231.314 705.393 245.707 725.219 263.585 741.612C282.154 758.735 303.82 772.158 327.419 781.162C375.978 799.622 429.624 799.622 478.183 781.162C501.797 772.139 523.484 758.719 542.096 741.612C559.947 725.195 574.335 705.374 584.415 683.316V682.525C585.242 680.589 585.567 678.475 585.36 676.38C585.152 674.285 584.418 672.276 583.227 670.54C582.035 668.804 580.425 667.397 578.544 666.45C576.664 665.503 574.575 665.047 572.47 665.123H513.462C510.992 665.202 508.575 665.858 506.405 667.04C504.235 668.221 502.371 669.894 500.964 671.925C496.53 678.198 491.439 683.979 485.777 689.169C474.765 699.409 461.907 707.461 447.888 712.899C419.103 723.866 387.29 723.866 358.505 712.899C344.486 707.461 331.628 699.409 320.616 689.169C314.975 683.957 309.886 678.179 305.429 671.925C304.093 669.916 302.299 668.251 300.196 667.069C298.092 665.886 295.738 665.219 293.327 665.123H233.211Z" fill="white"/>
</g>
<defs>
<clipPath id="clip0">
<rect width="791" height="791" fill="white" transform="translate(5 4)"/>
</clipPath>
</defs>
</svg>
